HIERARCHY
ROOT Hips
{
	OFFSET 0.000000 0.000000 0.000000
	CHANNELS 6 Xposition Yposition Zposition Zrotation Yrotation Xrotation 
	JOINT LHipJoint
	{
		OFFSET 0.000000 0.000000 0.000000
		CHANNELS 3 Zrotation Yrotation Xrotation
		JOINT LeftUpLeg
		{
			OFFSET 1.363060 -1.794630 0.839290
			CHANNELS 3 Zrotation Yrotation Xrotation
			JOINT LeftLeg
			{
				OFFSET 2.448110 -6.726130 0.000000
				CHANNELS 3 Zrotation Yrotation Xrotation
				JOINT LeftFoot
				{
					OFFSET 2.562200 -7.039590 0.000000
					CHANNELS 3 Zrotation Yrotation Xrotation
					JOINT LeftToeBase
					{
						OFFSET 0.157640 -0.433110 2.322550
						CHANNELS 3 Zrotation Yrotation Xrotation
						End Site
						{
							OFFSET 0.000000 0.000000 0.000000
						}
					}
				}
			}
		}
	}
	JOINT RHipJoint
	{
		OFFSET 0.000000 0.000000 0.000000
		CHANNELS 3 Zrotation Yrotation Xrotation
		JOINT RightUpLeg
		{
			OFFSET -1.305520 -1.794630 0.839290
			CHANNELS 3 Zrotation Yrotation Xrotation
			JOINT RightLeg
			{
				OFFSET -2.542530 -6.985550 0.000000
				CHANNELS 3 Zrotation Yrotation Xrotation
				JOINT RightFoot
				{
					OFFSET -2.568260 -7.056230 0.000000
					CHANNELS 3 Zrotation Yrotation Xrotation
					JOINT RightToeBase
					{
						OFFSET -0.164730 -0.452590 2.363150
						CHANNELS 3 Zrotation Yrotation Xrotation
						End Site
						{
							OFFSET 0.000000 0.000000 0.000000
						}
					}
				}
			}
		}
	}
	JOINT LowerBack
	{
		OFFSET 0.000000 0.000000 0.000000
		CHANNELS 3 Zrotation Yrotation Xrotation
		JOINT Spine
		{
			OFFSET 0.028270 2.035590 -0.193380
			CHANNELS 3 Zrotation Yrotation Xrotation
			JOINT Spine1
			{
				OFFSET 0.056720 2.048850 -0.042750
				CHANNELS 3 Zrotation Yrotation Xrotation
				JOINT Neck
				{
					OFFSET 0.000000 0.000000 0.000000
					CHANNELS 3 Zrotation Yrotation Xrotation
					JOINT Neck1
					{
						OFFSET -0.054170 1.746240 0.172020
						CHANNELS 3 Zrotation Yrotation Xrotation
						JOINT Head
						{
							OFFSET 0.104070 1.761360 -0.123970
							CHANNELS 3 Zrotation Yrotation Xrotation
							End Site
							{
								OFFSET 0.000000 0.000000 0.000000
							}
						}
					}
				}
				JOINT LeftShoulder
				{
					OFFSET 0.000000 0.000000 0.000000
					CHANNELS 3 Zrotation Yrotation Xrotation
					JOINT LeftArm
					{
						OFFSET 3.362410 1.200890 -0.311210
						CHANNELS 3 Zrotation Yrotation Xrotation
						JOINT LeftForeArm
						{
							OFFSET 4.983000 -0.000000 -0.000000
							CHANNELS 3 Zrotation Yrotation Xrotation
							JOINT LeftHand
							{
								OFFSET 3.483560 -0.000000 -0.000000
								CHANNELS 3 Zrotation Yrotation Xrotation
								JOINT LeftFingerBase
								{
									OFFSET 0.000000 0.000000 0.000000
									CHANNELS 3 Zrotation Yrotation Xrotation
									JOINT LeftHandIndex1
									{
										OFFSET 0.715260 -0.000000 -0.000000
										CHANNELS 3 Zrotation Yrotation Xrotation
										End Site
										{
											OFFSET 0.000000 0.000000 0.000000
										}
									}
								}
								JOINT LThumb
								{
									OFFSET 0.000000 0.000000 0.000000
									CHANNELS 3 Zrotation Yrotation Xrotation
									End Site
									{
										OFFSET 0.000000 0.000000 0.000000
									}
								}
							}
						}
					}
				}
				JOINT RightShoulder
				{
					OFFSET 0.000000 0.000000 0.000000
					CHANNELS 3 Zrotation Yrotation Xrotation
					JOINT RightArm
					{
						OFFSET -3.136600 1.374050 -0.404650
						CHANNELS 3 Zrotation Yrotation Xrotation
						JOINT RightForeArm
						{
							OFFSET -5.241900 -0.000000 -0.000000
							CHANNELS 3 Zrotation Yrotation Xrotation
							JOINT RightHand
							{
								OFFSET -3.444170 -0.000000 -0.000000
								CHANNELS 3 Zrotation Yrotation Xrotation
								JOINT RightFingerBase
								{
									OFFSET 0.000000 0.000000 0.000000
									CHANNELS 3 Zrotation Yrotation Xrotation
									JOINT RightHandIndex1
									{
										OFFSET -0.622530 -0.000000 -0.000000
										CHANNELS 3 Zrotation Yrotation Xrotation
										End Site
										{
											OFFSET 0.000000 0.000000 0.000000
										}
									}
								}
								JOINT RThumb
								{
									OFFSET 0.000000 0.000000 0.000000
									CHANNELS 3 Zrotation Yrotation Xrotation
									End Site
									{
										OFFSET 0.000000 0.000000 0.000000
									}
								}
							}
						}
					}
				}
			}
		}
	}
}
MOTION
Frames: 7
Frame Time: 0.008333
25.749065 17.554810 -21.437637 6.342583 -17.337935 6.062285 -6.199986 -1.547386 2.603567 -9.443647 2.064715 -10.470045 0.159872 8.930456 24.798600 1.571320 -1.861335 1.989284 2.754400 -10.286400 -29.909100 2.350564 2.173570 -2.266121 11.227149 -1.616938 -37.679043 -4.674434 -14.766434 42.755878 -0.360706 -0.966941 -4.554948 -0.455900 4.331400 -12.010900 -8.603154 -0.590625 12.017660 0.257040 -1.801726 -2.652571 5.705204 -1.032082 0.234167 -12.124945 -3.276688 -14.557707 7.313405 -1.956256 12.280086 6.109000 -1.506000 10.606400 -6.677639 2.546918 -2.762996 -74.378493 4.796339 14.126608 21.256925 -36.786778 -9.258484 0.631905 -2.350047 7.469847 4.518865 35.065494 2.205900 -7.125000 0.000000 0.000000 -37.807400 63.419500 -18.183200 1.121798 -1.686098 -0.599451 74.443045 -9.156253 -1.089098 -129.694638 52.243639 -95.306834 0.672658 -0.122553 -22.976454 -56.716601 25.565188 -34.155000 7.125000 0.000000 0.000000 -15.525400 10.546300 -18.739200 
25.690704 17.551516 -21.286330 6.782673 -17.288156 5.890783 -6.209572 -1.557843 2.639165 -9.903436 2.487588 -10.355357 0.283322 9.145917 25.438408 1.566842 -1.897748 1.282786 3.264300 -11.111000 -32.655200 2.396834 2.211126 -2.276592 11.020841 -1.765218 -37.509771 -4.046044 -14.131256 40.341074 -0.248995 -1.349626 -3.390597 -0.313700 3.600300 -9.954700 -8.838047 -0.669999 12.140417 0.269388 -1.948962 -2.694821 5.961610 -1.091747 -0.036736 -12.775763 -3.281979 -14.132257 7.558095 -1.823739 12.143757 6.434900 -1.477200 10.438400 -6.716801 2.562446 -2.769736 -74.618420 4.971695 14.112346 21.372407 -36.881615 -9.316415 0.617918 -2.348763 7.557381 4.749505 35.307843 2.366000 -7.125000 0.000000 0.000000 -37.881900 63.674400 -18.448100 1.070650 -1.629221 -0.583775 74.113337 -9.199050 -0.363609 -129.622642 52.257043 -95.246027 0.668487 -0.116088 -22.764252 -56.842362 25.020287 -33.748400 7.125000 0.000000 0.000000 -15.760900 9.917700 -18.905300 
25.602390 17.553575 -21.245158 3.799776 -17.565947 7.839897 -6.017927 -1.456352 2.622128 -6.659381 2.510728 -11.359307 0.320329 8.964131 25.095248 1.549751 -1.543000 2.925282 3.123800 -10.892700 -31.919000 2.463872 2.224114 -2.306262 14.307507 0.954499 -38.364859 -3.474499 -13.625065 38.337881 0.426245 -3.914929 -3.291085 -0.277900 3.390600 -9.368100 -6.035105 -0.670982 11.941426 0.503760 -1.617650 -2.870718 5.717711 -0.867266 -0.808238 -13.066184 -3.310864 -13.844721 7.814887 -1.788838 12.036715 6.715100 -1.481000 10.432500 -6.669635 2.457752 -2.807737 -74.560426 4.889816 14.248847 21.502609 -36.918313 -9.388328 0.595803 -2.325147 7.461125 5.157840 34.388499 2.576500 -7.125000 0.000000 0.000000 -36.269300 63.054500 -17.032300 1.106551 -1.471069 -0.603019 74.108163 -9.248652 0.114734 -129.501628 52.227007 -95.171679 0.669953 -0.112096 -22.764905 -57.599322 25.321044 -34.815500 7.125000 0.000000 0.000000 -16.075300 10.804800 -19.510400 
25.539808 17.600408 -21.039195 4.848990 -17.450359 7.197731 -6.134821 -1.377333 2.817509 -7.717587 2.315189 -9.791185 0.195098 8.798203 24.560032 1.533161 -1.612405 2.583165 2.834200 -10.421700 -30.353500 2.493238 2.229492 -2.350006 13.605181 -0.295591 -38.161993 -3.096831 -13.195730 36.723742 0.468652 -4.060517 -1.511287 -0.265200 3.312900 -9.151100 -6.511599 -0.669148 11.663969 0.419517 -1.654103 -2.806731 5.498408 -0.915311 -0.419031 -12.885459 -3.276964 -14.022410 7.477943 -1.774614 12.335846 6.495400 -1.511400 10.575400 -6.693584 2.462957 -2.787090 -74.428030 4.607295 14.817141 21.342125 -36.792981 -9.289373 0.601780 -2.324414 6.927835 5.420252 34.054961 2.721700 -7.125000 0.000000 0.000000 -35.598900 62.867900 -16.519500 1.106032 -1.568999 -0.613158 73.911870 -9.375559 0.378715 -129.397731 52.290977 -95.073579 0.666618 -0.136508 -22.752338 -58.195985 26.761284 -36.841700 7.125000 0.000000 0.000000 -15.925200 13.078900 -19.796800 
25.480315 17.574984 -20.862979 5.841989 -17.452023 6.622014 -6.233871 -1.334415 2.941561 -8.702638 2.157770 -8.658479 0.082932 8.649805 24.062267 1.333447 -1.068157 2.411794 3.074700 -10.815000 -31.658300 2.510570 2.248669 -2.402796 12.941954 -1.067367 -38.134206 -2.807792 -12.834109 35.399287 0.577587 -4.536408 0.441670 -0.087300 1.906100 -5.246100 -7.170962 -0.680061 11.608744 0.360795 -1.729329 -2.745732 5.528521 -0.985642 -0.121888 -12.855953 -3.214226 -14.132280 7.286682 -1.684497 12.347332 6.382200 -1.480100 10.540600 -6.709426 2.472115 -2.760210 -74.402084 4.274203 14.963489 21.224302 -36.689840 -9.211443 0.612159 -2.330638 6.535357 5.376221 34.283085 2.713400 -7.125000 0.000000 0.000000 -35.926400 63.048100 -16.843700 1.105379 -1.636311 -0.610049 73.799852 -9.224759 1.120597 -129.775487 52.126020 -95.350367 0.666372 -0.143718 -23.355375 -59.564751 27.764196 -39.297100 7.125000 0.000000 0.000000 -16.308700 15.336000 -20.764300 
25.412484 17.564794 -20.672044 7.468111 -17.470772 5.560177 -6.348921 -1.247187 3.139483 -10.306280 2.207996 -6.859216 -0.144454 8.266390 22.868297 1.278273 -1.024734 2.585168 3.119300 -10.885700 -31.895300 2.484817 2.252352 -2.478180 11.759351 -2.255901 -37.966327 -2.732871 -12.717101 34.925515 0.577075 -4.660562 2.151563 -0.000700 0.168100 -0.462000 -8.572570 -0.629633 11.718742 0.245462 -1.798471 -2.614156 5.744167 -1.089832 0.374907 -13.181778 -3.250470 -14.252148 7.481042 -1.661371 12.208512 6.564900 -1.450300 10.438700 -6.762302 2.537929 -2.718853 -74.471082 3.979147 14.986020 21.346633 -36.845504 -9.309322 0.554083 -2.306060 6.918019 6.661041 33.238922 3.422800 -7.125000 0.000000 0.000000 -33.345400 62.539200 -15.088300 1.051153 -1.721182 -0.578472 73.953609 -8.813509 2.049645 -130.358128 51.873336 -95.785189 0.671614 -0.139461 -24.454251 -61.457392 28.319329 -42.026600 7.125000 0.000000 0.000000 -17.106500 17.493300 -22.280200 
25.328493 17.576528 -20.526604 6.386461 -17.378642 6.170395 -6.290963 -1.098122 3.266206 -9.045883 2.049225 -6.248334 -0.236573 7.969306 22.077786 1.315639 -1.040152 3.566047 2.967400 -10.642000 -31.081800 2.474585 2.222461 -2.525837 13.439746 -2.208900 -38.519580 -2.694198 -12.720611 34.776985 0.958298 -6.245213 3.169689 -0.036000 -1.224400 3.366400 -7.363496 -0.597371 11.411342 0.338182 -1.584401 -2.601452 5.566128 -0.996092 0.471181 -13.065016 -3.309610 -14.228840 7.475264 -1.783546 12.068459 6.532800 -1.486300 10.364800 -6.711514 2.520127 -2.695050 -74.410425 3.729890 15.599828 21.560875 -37.041130 -9.432413 0.508728 -2.292152 7.111130 7.613151 32.794823 3.960000 -7.125000 0.000000 0.000000 -31.837600 62.423200 -14.242200 1.077308 -1.746463 -0.572949 74.158844 -8.445548 2.177439 -130.479234 51.810995 -95.888554 0.675770 -0.135910 -24.500611 -61.504444 27.916460 -41.721000 7.125000 0.000000 0.000000 -17.268900 17.044800 -22.423400 
